ply
format ascii 1.0
comment Exported by [ProBuilder](http://www.procore3d.com/probuilder)
comment 11/23/2018 8:52:36 PM
element vertex 208
property float32 x
property float32 y
property float32 z
property float32 nx
property float32 ny
property float32 nz
property uint8 red
property uint8 green
property uint8 blue
property uint8 alpha
element face 52
property list uint8 int32 vertex_index
end_header
3 -0.2939587 6 0 0 1 255 255 255 255
-3 -0.2939587 6 0 0 1 255 255 255 255
3 0 6 0 0 1 255 255 255 255
-3 0 6 0 0 1 255 255 255 255
-9 -0.2939587 6 -1 0 0 255 255 255 255
-9 -0.2939587 -6 -1 0 0 255 255 255 255
-9 0 6 -1 0 0 255 255 255 255
-9 0 -6 -1 0 0 255 255 255 255
-3 -0.2939587 -6 0 0 -1 255 255 255 255
3 -0.2939587 -6 0 0 -1 255 255 255 255
-3 0 -6 0 0 -1 255 255 255 255
3 0 -6 0 0 -1 255 255 255 255
9 -0.2939587 -6 1 0 0 255 255 255 255
9 -0.2939587 6 1 0 0 255 255 255 255
9 0 -6 1 0 0 255 255 255 255
9 0 6 1 0 0 255 255 255 255
3 0 6 0 1 0 255 255 255 255
-3 0 6 0 1 0 255 255 255 255
3 0 -6 0 1 0 255 255 255 255
-3 0 -6 0 1 0 255 255 255 255
3 -0.2939587 -6 0 -1 0 255 255 255 255
-3 -0.2939587 -6 0 -1 0 255 255 255 255
3 -0.2939587 6 0 -1 0 255 255 255 255
-3 -0.2939587 6 0 -1 0 255 255 255 255
3 -0.2939587 -6 0 -1 0 255 255 255 255
3 -0.2939587 6 0 -1 0 255 255 255 255
9 -0.2939587 -6 0 -1 0 255 255 255 255
9 -0.2939587 6 0 -1 0 255 255 255 255
3 0 -6 0 0 -1 255 255 255 255
3 -0.2939587 -6 0 0 -1 255 255 255 255
9 0 -6 0 0 -1 255 255 255 255
9 -0.2939587 -6 0 0 -1 255 255 255 255
3 -0.2939587 6 0 0 1 255 255 255 255
3 0 6 0 0 1 255 255 255 255
9 -0.2939587 6 0 0 1 255 255 255 255
9 0 6 0 0 1 255 255 255 255
7.206146 0.6979827 1.999653 0 0.9999999 0 255 255 255 255
7.206146 0.6979827 -1.999653 0 0.9999999 0 255 255 255 255
9.006145 0.6979827 1.999653 0 0.9999999 0 255 255 255 255
9.006145 0.6979827 -1.999653 0 0.9999999 0 255 255 255 255
-3 -0.2939587 6 0 -1 0 255 255 255 255
-3 -0.2939587 -6 0 -1 0 255 255 255 255
-9 -0.2939587 6 0 -1 0 255 255 255 255
-9 -0.2939587 -6 0 -1 0 255 255 255 255
-3 0 6 0 0 1 255 255 255 255
-3 -0.2939587 6 0 0 1 255 255 255 255
-9 0 6 0 0 1 255 255 255 255
-9 -0.2939587 6 0 0 1 255 255 255 255
-3 -0.2939587 -6 0 0 -1 255 255 255 255
-3 0 -6 0 0 -1 255 255 255 255
-9 -0.2939587 -6 0 0 -1 255 255 255 255
-9 0 -6 0 0 -1 255 255 255 255
-3 0 -6 0 1 0 255 255 255 255
-3 0 6 0 1 0 255 255 255 255
-9 0 -6 0 1 0 255 255 255 255
-9 0 6 0 1 0 255 255 255 255
3 0 6 -1 0 0 255 255 255 255
3 0 -6 -0.9999999 0 0 255 255 255 255
3 0.0001 1.999653 -0.9999999 0 0 255 255 255 255
3 0.0001 -1.999653 -1 0 0 255 255 255 255
9 0 6 0 1 2.499783E-05 255 255 255 255
3 0 6 0 1 2.499783E-05 255 255 255 255
9 0.0001 1.999653 0 1 2.499783E-05 255 255 255 255
3 0.0001 1.999653 0 1 2.499783E-05 255 255 255 255
3 0 -6 0 1 -2.499783E-05 255 255 255 255
9 0 -6 0 1 -2.499783E-05 255 255 255 255
3 0.0001 -1.999653 0 1 -2.499783E-05 255 255 255 255
9 0.0001 -1.999653 0 1 -2.499783E-05 255 255 255 255
9 0 -6 1 0 0 255 255 255 255
9 0 6 0.9999999 0 0 255 255 255 255
9 0.0001 -1.999653 0.9999999 0 0 255 255 255 255
9 0.0001 1.999653 1 0 0 255 255 255 255
3 0.0001 1.999653 -2.377473E-05 1 0 255 255 255 255
3 0.0001 -1.999653 -2.377473E-05 1 0 255 255 255 255
7.206146 0.0002 1.999653 -2.377473E-05 1 0 255 255 255 255
7.206146 0.0002 -1.999653 -2.377473E-05 1 0 255 255 255 255
9 0.0001 1.999653 0 0 1 255 255 255 255
3 0.0001 1.999653 0 0 1 255 255 255 255
9.006145 0.0002 1.999653 0 0 1 255 255 255 255
7.206146 0.0002 1.999653 0 0 0.9999999 255 255 255 255
3 0.0001 -1.999653 0 0 -1 255 255 255 255
9 0.0001 -1.999653 0 0 -1 255 255 255 255
7.206146 0.0002 -1.999653 0 0 -1 255 255 255 255
9.006145 0.0002 -1.999653 0 0 -0.9999999 255 255 255 255
9 0.0001 -1.999653 0.01626997 -0.9998676 0 255 255 255 255
9 0.0001 1.999653 0.01626997 -0.9998676 0 255 255 255 255
9.006145 0.0002 -1.999653 0.01626997 -0.9998676 0 255 255 255 255
9.006145 0.0002 1.999653 0.01626997 -0.9998676 0 255 255 255 255
7.206146 0.0002 1.999653 -1 0 0 255 255 255 255
7.206146 0.0002 -1.999653 -1 0 0 255 255 255 255
7.206146 0.6979827 1.999653 -1 0 0 255 255 255 255
7.206146 0.6979827 -1.999653 -1 0 0 255 255 255 255
9.006145 0.0002 1.999653 0 0 1 255 255 255 255
7.206146 0.0002 1.999653 0 0 1 255 255 255 255
9.006145 0.6979827 1.999653 0 0 1 255 255 255 255
7.206146 0.6979827 1.999653 0 0 1 255 255 255 255
7.206146 0.0002 -1.999653 0 0 -1 255 255 255 255
9.006145 0.0002 -1.999653 0 0 -1 255 255 255 255
7.206146 0.6979827 -1.999653 0 0 -1 255 255 255 255
9.006145 0.6979827 -1.999653 0 0 -1 255 255 255 255
9.006145 0.0002 -1.999653 1 0 0 255 255 255 255
9.006145 0.0002 1.999653 1 0 0 255 255 255 255
9.006145 0.6979827 -1.999653 1 0 0 255 255 255 255
9.006145 0.6979827 1.999653 1 0 0 255 255 255 255
-3.000007 -0.2939587 -5.999997 -1.11262E-06 0 -1 255 255 255 255
2.999993 -0.2939587 -6.000003 -1.11262E-06 0 -1 255 255 255 255
-3.000007 0 -5.999997 -1.11262E-06 0 -1 255 255 255 255
2.999993 0 -6.000003 -1.11262E-06 0 -1 255 255 255 255
8.999993 -0.2939587 -6.00001 1 0 -1.11262E-06 255 255 255 255
9.000007 -0.2939587 5.99999 1 0 -1.11262E-06 255 255 255 255
8.999993 0 -6.00001 1 0 -1.11262E-06 255 255 255 255
9.000007 0 5.99999 1 0 -1.11262E-06 255 255 255 255
3.000007 -0.2939587 5.999997 1.11262E-06 0 1 255 255 255 255
-2.999993 -0.2939587 6.000003 1.11262E-06 0 1 255 255 255 255
3.000007 0 5.999997 1.11262E-06 0 1 255 255 255 255
-2.999993 0 6.000003 1.11262E-06 0 1 255 255 255 255
-8.999993 -0.2939587 6.00001 -1 0 1.11262E-06 255 255 255 255
-9.000007 -0.2939587 -5.99999 -1 0 1.11262E-06 255 255 255 255
-8.999993 0 6.00001 -1 0 1.11262E-06 255 255 255 255
-9.000007 0 -5.99999 -1 0 1.11262E-06 255 255 255 255
-3.000007 0 -5.999997 0 1 0 255 255 255 255
2.999993 0 -6.000003 0 1 0 255 255 255 255
-2.999993 0 6.000003 0 1 0 255 255 255 255
3.000007 0 5.999997 0 1 0 255 255 255 255
-2.999993 -0.2939587 6.000003 0 -1 0 255 255 255 255
3.000007 -0.2939587 5.999997 0 -1 0 255 255 255 255
-3.000007 -0.2939587 -5.999997 0 -1 0 255 255 255 255
2.999993 -0.2939587 -6.000003 0 -1 0 255 255 255 255
-2.999993 -0.2939587 6.000003 0 -1 0 255 255 255 255
-3.000007 -0.2939587 -5.999997 0 -1 0 255 255 255 255
-8.999993 -0.2939587 6.00001 0 -1 0 255 255 255 255
-9.000007 -0.2939587 -5.99999 0 -1 0 255 255 255 255
-2.999993 0 6.000003 1.192093E-06 0 1 255 255 255 255
-2.999993 -0.2939587 6.000003 1.192093E-06 0 1 255 255 255 255
-8.999993 0 6.00001 1.192093E-06 0 1 255 255 255 255
-8.999993 -0.2939587 6.00001 1.192093E-06 0 1 255 255 255 255
-3.000007 -0.2939587 -5.999997 -1.192093E-06 0 -1 255 255 255 255
-3.000007 0 -5.999997 -1.192093E-06 0 -1 255 255 255 255
-9.000007 -0.2939587 -5.99999 -1.192093E-06 0 -1 255 255 255 255
-9.000007 0 -5.99999 -1.192093E-06 0 -1 255 255 255 255
-7.206148 0.6979827 -1.999645 0 1 0 255 255 255 255
-7.206143 0.6979827 1.999662 0 0.9999999 0 255 255 255 255
-9.006147 0.6979827 -1.999643 0 0.9999999 0 255 255 255 255
-9.006144 0.6979827 1.999664 0 1 0 255 255 255 255
2.999993 -0.2939587 -6.000003 0 -1 0 255 255 255 255
3.000007 -0.2939587 5.999997 0 -1 0 255 255 255 255
8.999993 -0.2939587 -6.00001 0 -1 0 255 255 255 255
9.000007 -0.2939587 5.99999 0 -1 0 255 255 255 255
2.999993 0 -6.000003 -1.192093E-06 0 -1 255 255 255 255
2.999993 -0.2939587 -6.000003 -1.192093E-06 0 -1 255 255 255 255
8.999993 0 -6.00001 -1.192093E-06 0 -1 255 255 255 255
8.999993 -0.2939587 -6.00001 -1.192093E-06 0 -1 255 255 255 255
3.000007 -0.2939587 5.999997 1.192093E-06 0 1 255 255 255 255
3.000007 0 5.999997 1.192093E-06 0 1 255 255 255 255
9.000007 -0.2939587 5.99999 1.192093E-06 0 1 255 255 255 255
9.000007 0 5.99999 1.192093E-06 0 1 255 255 255 255
3.000007 0 5.999997 0 1 0 255 255 255 255
2.999993 0 -6.000003 0 1 0 255 255 255 255
9.000007 0 5.99999 0 1 0 255 255 255 255
8.999993 0 -6.00001 0 1 0 255 255 255 255
-3.000007 0 -5.999997 0.9999997 0.0007987302 -1.152356E-06 255 255 255 255
-2.999993 0 6.000003 0.9999999 4.547671E-09 -1.162341E-06 255 255 255 255
-3.000002 0.0001 -1.99965 0.9999999 4.547671E-09 -1.162341E-06 255 255 255 255
-2.999998 0.0001 1.999657 0.9999971 -0.002396581 -1.192296E-06 255 255 255 255
-9.000007 0 -5.99999 -2.979974E-11 1 -2.499783E-05 255 255 255 255
-3.000007 0 -5.999997 -2.884425E-11 1 -2.499783E-05 255 255 255 255
-9.000002 0.0001 -1.999643 -2.884425E-11 1 -2.499783E-05 255 255 255 255
-3.000002 0.0001 -1.99965 -2.788875E-11 1 -2.499783E-05 255 255 255 255
-2.999993 0 6.000003 2.979974E-11 1 2.499783E-05 255 255 255 255
-8.999993 0 6.00001 3.00568E-11 1 2.499784E-05 255 255 255 255
-2.999998 0.0001 1.999657 3.00568E-11 1 2.499784E-05 255 255 255 255
-8.999998 0.0001 1.999664 3.031386E-11 1 2.499783E-05 255 255 255 255
-8.999993 0 6.00001 -0.9999949 -0.003175042 1.112614E-06 255 255 255 255
-9.000007 0 -5.99999 -0.9999999 0 1.07293E-06 255 255 255 255
-8.999998 0.0001 1.999664 -0.9999999 0 1.07293E-06 255 255 255 255
-9.000002 0.0001 -1.999643 -0.9999546 0.009526394 9.537964E-07 255 255 255 255
-3.000002 0.0001 -1.99965 2.377473E-05 1 -2.83466E-11 255 255 255 255
-2.999998 0.0001 1.999657 2.377473E-05 1 -2.887949E-11 255 255 255 255
-7.206148 0.0002 -1.999645 2.377473E-05 1 -2.887949E-11 255 255 255 255
-7.206143 0.0002 1.999662 2.377474E-05 1 -2.941238E-11 255 255 255 255
-9.000002 0.0001 -1.999643 -1.172225E-06 -7.203881E-05 -1 255 255 255 255
-3.000002 0.0001 -1.99965 -1.17681E-06 -0.0003474253 -0.9999999 255 255 255 255
-9.006147 0.0002 -1.999643 -1.17681E-06 -0.0003474253 -0.9999999 255 255 255 255
-7.206148 0.0002 -1.999645 -1.192092E-06 -0.00126538 -0.9999992 255 255 255 255
-2.999998 0.0001 1.999657 1.172224E-06 0.0004296665 0.9999999 255 255 255 255
-8.999998 0.0001 1.999664 1.17681E-06 0.0003474188 0.9999999 255 255 255 255
-7.206143 0.0002 1.999662 1.17681E-06 0.0003474188 0.9999999 255 255 255 255
-9.006144 0.0002 1.999664 1.192093E-06 7.32598E-05 1 255 255 255 255
-8.999998 0.0001 1.999664 -0.01626997 -0.9998676 1.551895E-08 255 255 255 255
-9.000002 0.0001 -1.999643 -0.01626997 -0.9998676 1.551908E-08 255 255 255 255
-9.006144 0.0002 1.999664 -0.01626997 -0.9998676 1.551908E-08 255 255 255 255
-9.006147 0.0002 -1.999643 -0.01626997 -0.9998676 1.551921E-08 255 255 255 255
-7.206148 0.0002 -1.999645 1 0 -1.1923E-06 255 255 255 255
-7.206143 0.0002 1.999662 1 0 -1.1923E-06 255 255 255 255
-7.206148 0.6979827 -1.999645 1 0 -1.1923E-06 255 255 255 255
-7.206143 0.6979827 1.999662 1 0 -1.1923E-06 255 255 255 255
-9.006147 0.0002 -1.999643 -1.192093E-06 0 -1 255 255 255 255
-7.206148 0.0002 -1.999645 -1.192093E-06 0 -1 255 255 255 255
-9.006147 0.6979827 -1.999643 -1.192093E-06 0 -1 255 255 255 255
-7.206148 0.6979827 -1.999645 -1.192093E-06 0 -1 255 255 255 255
-7.206143 0.0002 1.999662 1.192093E-06 0 1 255 255 255 255
-9.006144 0.0002 1.999664 1.192093E-06 0 1 255 255 255 255
-7.206143 0.6979827 1.999662 1.192093E-06 0 1 255 255 255 255
-9.006144 0.6979827 1.999664 1.192093E-06 0 1 255 255 255 255
-9.006144 0.0002 1.999664 -1 0 9.538397E-07 255 255 255 255
-9.006147 0.0002 -1.999643 -1 0 9.538397E-07 255 255 255 255
-9.006144 0.6979827 1.999664 -1 0 9.538397E-07 255 255 255 255
-9.006147 0.6979827 -1.999643 -1 0 9.538397E-07 255 255 255 255
4 2 3 1 0
4 6 7 5 4
4 10 11 9 8
4 14 15 13 12
4 18 19 17 16
4 22 23 21 20
4 26 27 25 24
4 30 31 29 28
4 34 35 33 32
4 38 39 37 36
4 42 43 41 40
4 46 47 45 44
4 50 51 49 48
4 54 55 53 52
4 58 59 57 56
4 62 63 61 60
4 66 67 65 64
4 70 71 69 68
4 74 75 73 72
4 78 79 77 76
4 82 83 81 80
4 86 87 85 84
4 90 91 89 88
4 94 95 93 92
4 98 99 97 96
4 102 103 101 100
4 106 107 105 104
4 110 111 109 108
4 114 115 113 112
4 118 119 117 116
4 122 123 121 120
4 126 127 125 124
4 130 131 129 128
4 134 135 133 132
4 138 139 137 136
4 142 143 141 140
4 146 147 145 144
4 150 151 149 148
4 154 155 153 152
4 158 159 157 156
4 162 163 161 160
4 166 167 165 164
4 170 171 169 168
4 174 175 173 172
4 178 179 177 176
4 182 183 181 180
4 186 187 185 184
4 190 191 189 188
4 194 195 193 192
4 198 199 197 196
4 202 203 201 200
4 206 207 205 204
